<?xml version="1.0" standalone="no"?>
<!DOCTYPE svg PUBLIC "-//W3C//DTD SVG 20010904//EN"
 "http://www.w3.org/TR/2001/REC-SVG-20010904/DTD/svg10.dtd">
<svg version="1.0" xmlns="http://www.w3.org/2000/svg"
 width="700.000000pt" height="700.000000pt" viewBox="0 0 700.000000 700.000000"
 preserveAspectRatio="xMidYMid meet">
<metadata>
Created by potrace 1.14, written by Peter Selinger 2001-2017
</metadata>
<g transform="translate(0.000000,700.000000) scale(0.100000,-0.100000)"
fill="#000000" stroke="none">
<path d="M1567 5444 c-1 -1 -32 -4 -69 -8 -323 -30 -544 -173 -632 -408 -47
-123 -54 -199 -56 -558 -2 -414 -4 -432 -40 -513 -32 -73 -102 -132 -186 -157
-67 -20 -205 -36 -307 -35 l-97 0 -1 -107 c0 -60 -1 -125 -2 -145 l0 -38 139
-6 c76 -4 161 -12 188 -18 114 -27 218 -98 255 -175 47 -95 49 -125 51 -596 0
-245 3 -463 6 -485 15 -129 34 -197 80 -286 106 -202 307 -316 609 -345 82 -8
302 -13 320 -7 8 3 12 149 6 271 -1 21 -4 22 -113 22 -249 1 -406 73 -481 223
-49 96 -54 147 -54 605 -1 232 -4 448 -7 480 -27 243 -162 399 -387 446 -67
14 -66 17 15 36 185 43 321 190 361 392 4 18 9 182 10 363 2 182 6 350 9 375
23 198 139 321 341 366 17 4 91 9 165 11 74 3 137 7 139 9 4 3 5 164 2 254
l-1 36 -131 -1 c-72 0 -131 -1 -132 -1z"/>
<path d="M5169 5446 c-4 -3 -3 -279 1 -286 3 -5 59 -9 125 -11 66 -1 147 -8
180 -16 178 -40 290 -150 325 -318 9 -40 14 -174 16 -405 2 -312 4 -353 23
-423 51 -194 168 -307 361 -352 98 -22 101 -23 63 -24 -47 -1 -167 -45 -223
-81 -90 -58 -162 -157 -190 -260 -7 -25 -15 -54 -17 -65 -3 -11 -7 -128 -9
-260 -2 -132 -6 -355 -8 -495 -2 -140 -5 -262 -8 -270 -41 -143 -111 -231
-223 -279 -74 -32 -139 -44 -280 -50 l-140 -6 -1 -135 c0 -74 3 -140 8 -146 8
-11 254 -11 343 0 225 29 397 104 507 222 41 45 95 140 118 210 43 127 48 205
49 682 1 270 6 475 12 510 27 147 105 224 264 261 72 16 113 20 240 22 l114 2
3 106 c2 58 1 124 -2 146 l-5 39 -95 2 c-282 4 -432 70 -494 218 -31 75 -33
103 -40 586 -3 250 -6 294 -24 362 -64 237 -198 380 -428 457 -33 11 -76 23
-95 26 -19 3 -41 8 -49 10 -33 9 -162 18 -287 20 -73 1 -134 1 -134 1z"/>
<path d="M2483 5039 c-118 -37 -196 -139 -200 -265 -4 -136 60 -239 181 -288
118 -48 259 -13 336 85 183 232 -35 554 -317 468z"/>
<path d="M4558 5045 c-24 -6 -65 -23 -91 -38 -182 -107 -178 -394 8 -503 50
-29 71 -34 145 -38 67 -3 112 9 167 46 86 58 133 153 129 259 -5 140 -97 249
-232 277 -60 12 -69 12 -126 -3z"/>
<path d="M1806 4140 c-2 -5 0 -275 3 -296 1 -7 95 -10 312 -10 181 1 313 -3
317 -8 3 -5 6 -353 6 -773 l1 -763 -350 -1 c-192 -1 -353 -1 -356 -1 -11 1 -6
-307 5 -311 6 -2 396 -3 866 -3 l855 1 1 145 c0 80 -2 151 -4 158 -3 9 -77 12
-323 12 l-318 0 0 733 c0 402 0 820 -1 927 l0 195 -506 0 c-278 0 -507 -2
-508 -5z"/>
<path d="M3862 4140 c-4 -3 -7 -73 -7 -156 l0 -150 310 1 c171 0 315 -1 320
-2 7 -2 10 -262 9 -766 -1 -419 -2 -765 -3 -769 0 -5 -158 -8 -351 -8 -192 0
-350 -3 -351 -7 -1 -5 -2 -76 -3 -158 l-1 -150 860 1 c473 1 862 2 865 3 5 1
5 276 1 304 0 4 -144 7 -319 7 l-319 0 0 898 c-1 493 -2 911 -2 927 l-1 30
-500 0 c-276 1 -504 -2 -508 -5z"/>
</g>
</svg>
